<?xml version="1.0" encoding="utf-8"?>
<svg version="1.1" xmlns:xlink="http://www.w3.org/1999/xlink" width="258px" height="170px" xmlns="http://www.w3.org/2000/svg">
  <defs>
    <mask fill="white" id="clip208">
      <path d="M 0 170  L 0 20.9565217391305  L 0 0  L 249.052795031056 0  L 250.388198757764 0  L 258 0  L 258 10.8115942028985  L 258 170  L 0 170  Z " fill-rule="evenodd" />
    </mask>
  </defs>
  <g transform="matrix(1 0 0 1 0 -270 )">
    <path d="M 0 170  L 0 20.9565217391305  L 0 0  L 249.052795031056 0  L 250.388198757764 0  L 258 0  L 258 10.8115942028985  L 258 170  L 0 170  Z " fill-rule="nonzero" fill="#ffffff" stroke="none" fill-opacity="0" transform="matrix(1 0 0 1 0 270 )" />
    <path d="M 0 170  L 0 20.9565217391305  L 0 0  L 249.052795031056 0  L 250.388198757764 0  L 258 0  L 258 10.8115942028985  L 258 170  L 0 170  Z " stroke-width="2" stroke="#797979" fill="none" transform="matrix(1 0 0 1 0 270 )" mask="url(#clip208)" />
  </g>
</svg>