<?xml version="1.0" encoding="utf-8"?>
<svg version="1.1" xmlns:xlink="http://www.w3.org/1999/xlink" width="13px" height="20px" xmlns="http://www.w3.org/2000/svg">
  <g transform="matrix(1 0 0 1 -750 -5 )">
    <path d="M 12.6936026936027 14.9494949494949  C 12.8978675645342 15.2637485970819  13 15.645342312009  13 16.0942760942761  C 13 16.5432098765432  12.8978675645342 16.9248035914703  12.6936026936027 17.2390572390572  L 11.2053872053872 19.5286195286195  C 11.0011223344557 19.8428731762065  10.7530864197531 20  10.4612794612795 20  C 10.1694725028058 20  9.92143658810325 19.8428731762065  9.71717171717172 19.5286195286195  L 6.5 14.5791245791246  L 3.28282828282828 19.5286195286195  C 3.07856341189675 19.8428731762065  2.83052749719416 20  2.53872053872054 20  C 2.24691358024691 20  1.99887766554433 19.8428731762065  1.79461279461279 19.5286195286195  L 0.306397306397306 17.2390572390572  C 0.102132435465769 16.9248035914703  0 16.5432098765432  0 16.0942760942761  C 0 15.645342312009  0.102132435465769 15.2637485970819  0.306397306397306 14.9494949494949  L 3.52356902356902 10  L 0.306397306397306 5.05050505050505  C 0.102132435465769 4.73625140291807  0 4.35465768799102  0 3.90572390572391  C 0 3.45679012345679  0.102132435465769 3.07519640852974  0.306397306397306 2.76094276094276  L 1.79461279461279 0.471380471380471  C 1.99887766554433 0.15712682379349  2.24691358024691 0  2.53872053872054 0  C 2.83052749719416 0  3.07856341189675 0.15712682379349  3.28282828282828 0.471380471380471  L 6.5 5.42087542087542  L 9.71717171717172 0.471380471380471  C 9.92143658810325 0.15712682379349  10.1694725028058 0  10.4612794612795 0  C 10.7530864197531 0  11.0011223344557 0.15712682379349  11.2053872053872 0.471380471380471  L 12.6936026936027 2.76094276094276  C 12.8978675645342 3.07519640852974  13 3.45679012345679  13 3.90572390572391  C 13 4.35465768799102  12.8978675645342 4.73625140291807  12.6936026936027 5.05050505050505  L 9.47643097643098 10  L 12.6936026936027 14.9494949494949  Z " fill-rule="nonzero" fill="#000000" stroke="none" transform="matrix(1 0 0 1 750 5 )" />
  </g>
</svg>