<?xml version="1.0" encoding="utf-8"?>
<svg version="1.1" xmlns:xlink="http://www.w3.org/1999/xlink" width="280px" height="152px" xmlns="http://www.w3.org/2000/svg">
  <defs>
    <mask fill="white" id="clip167">
      <path d="M 0 152  L 0 18.7375959079284  L 0 0  L 270.289855072464 0  L 271.739130434783 0  L 280 0  L 280 9.66683716965043  L 280 152  L 0 152  Z " fill-rule="evenodd" />
    </mask>
  </defs>
  <g transform="matrix(1 0 0 1 0 -288 )">
    <path d="M 0 152  L 0 18.7375959079284  L 0 0  L 270.289855072464 0  L 271.739130434783 0  L 280 0  L 280 9.66683716965043  L 280 152  L 0 152  Z " fill-rule="nonzero" fill="#ffffff" stroke="none" fill-opacity="0" transform="matrix(1 0 0 1 0 288 )" />
    <path d="M 0 152  L 0 18.7375959079284  L 0 0  L 270.289855072464 0  L 271.739130434783 0  L 280 0  L 280 9.66683716965043  L 280 152  L 0 152  Z " stroke-width="2" stroke="#797979" fill="none" transform="matrix(1 0 0 1 0 288 )" mask="url(#clip167)" />
  </g>
</svg>