<?xml version="1.0" encoding="utf-8"?>
<svg version="1.1" xmlns:xlink="http://www.w3.org/1999/xlink" width="14px" height="20px" xmlns="http://www.w3.org/2000/svg">
  <g transform="matrix(1 0 0 1 -751 -5 )">
    <path d="M 13.6700336700337 14.9494949494949  C 13.8900112233446 15.2637485970819  14 15.645342312009  14 16.0942760942761  C 14 16.5432098765432  13.8900112233446 16.9248035914703  13.6700336700337 17.2390572390572  L 12.0673400673401 19.5286195286195  C 11.8473625140292 19.8428731762065  11.5802469135802 20  11.2659932659933 20  C 10.9517396184063 20  10.6846240179574 19.8428731762065  10.4646464646465 19.5286195286195  L 7 14.5791245791246  L 3.53535353535354 19.5286195286195  C 3.31537598204265 19.8428731762065  3.04826038159371 20  2.73400673400673 20  C 2.41975308641975 20  2.15263748597082 19.8428731762065  1.93265993265993 19.5286195286195  L 0.32996632996633 17.2390572390572  C 0.109988776655443 16.9248035914703  0 16.5432098765432  0 16.0942760942761  C 0 15.645342312009  0.109988776655443 15.2637485970819  0.32996632996633 14.9494949494949  L 3.79461279461279 10  L 0.32996632996633 5.05050505050505  C 0.109988776655443 4.73625140291807  0 4.35465768799102  0 3.90572390572391  C 0 3.45679012345679  0.109988776655443 3.07519640852974  0.32996632996633 2.76094276094276  L 1.93265993265993 0.471380471380471  C 2.15263748597082 0.15712682379349  2.41975308641975 0  2.73400673400673 0  C 3.04826038159371 0  3.31537598204265 0.15712682379349  3.53535353535354 0.471380471380471  L 7 5.42087542087542  L 10.4646464646465 0.471380471380471  C 10.6846240179574 0.15712682379349  10.9517396184063 0  11.2659932659933 0  C 11.5802469135802 0  11.8473625140292 0.15712682379349  12.0673400673401 0.471380471380471  L 13.6700336700337 2.76094276094276  C 13.8900112233446 3.07519640852974  14 3.45679012345679  14 3.90572390572391  C 14 4.35465768799102  13.8900112233446 4.73625140291807  13.6700336700337 5.05050505050505  L 10.2053872053872 10  L 13.6700336700337 14.9494949494949  Z " fill-rule="nonzero" fill="#000000" stroke="none" transform="matrix(1 0 0 1 751 5 )" />
  </g>
</svg>